<svg xmlns="http://www.w3.org/2000/svg" viewBox="0 0 294.34 139.14"><defs><style>.cls-1{fill:#fff;}</style></defs><g id="Ebene_2" data-name="Ebene 2"><g id="Ebene_1-2" data-name="Ebene 1"><polygon class="cls-1" points="76.55 96.96 56.42 108.58 65.97 114.09 86.09 102.47 76.55 96.96"/><polygon class="cls-1" points="79 43.6 79 57.28 88.55 62.8 88.55 38.09 37.04 8.35 27.49 13.86 79 43.6"/><polygon class="cls-1" points="26.47 42.18 46.59 30.56 37.05 25.05 16.92 36.67 26.47 42.18"/><polygon class="cls-1" points="91.01 33.83 100.56 28.32 51.51 0 41.95 5.51 91.01 33.83"/><polygon class="cls-1" points="79 92.7 88.55 98.22 88.55 83.93 79 78.42 79 92.7"/><polygon class="cls-1" points="65.83 119.68 24.01 95.54 24.01 46.44 14.46 40.92 14.46 101.05 65.97 130.79 103.01 109.4 103.01 78.42 93.46 83.93 93.46 103.89 93.33 103.97 65.97 119.76 65.83 119.68"/><polygon class="cls-1" points="99.48 74.78 91.01 69.89 82.53 74.78 91.01 79.67 99.48 74.78"/><polygon class="cls-1" points="2.46 110.82 51.51 139.14 61.05 133.63 12.01 105.31 2.46 110.82"/><polygon class="cls-1" points="22.58 16.7 0 29.74 0 106.57 9.55 101.05 9.55 35.25 9.69 35.17 32.13 22.21 22.58 16.7"/><polygon class="cls-1" points="93.46 62.8 103.01 57.28 103.01 32.57 93.46 38.09 93.46 62.8"/><path class="cls-1" d="M125.38,63a9.91,9.91,0,0,1-4.1-3.85,11.21,11.21,0,0,1-1.44-5.73V43a11.17,11.17,0,0,1,1.44-5.72,9.74,9.74,0,0,1,4.1-3.83,13.34,13.34,0,0,1,6.18-1.36,13.72,13.72,0,0,1,6.1,1.29,9.58,9.58,0,0,1,4.1,3.65,10.16,10.16,0,0,1,1.47,5.48c0,.27-.18.43-.54.49l-5.28.32h-.09c-.3,0-.45-.17-.45-.5A5.12,5.12,0,0,0,135.41,39a5.93,5.93,0,0,0-7.75,0,5.12,5.12,0,0,0-1.47,3.83V53.67a5.06,5.06,0,0,0,1.47,3.79,5.93,5.93,0,0,0,7.75,0,5.06,5.06,0,0,0,1.46-3.79c0-.33.18-.49.54-.49l5.28.22a.56.56,0,0,1,.38.14.38.38,0,0,1,.16.31,10.26,10.26,0,0,1-1.47,5.5,9.69,9.69,0,0,1-4.1,3.7,13.59,13.59,0,0,1-6.1,1.31A13.22,13.22,0,0,1,125.38,63Z"/><path class="cls-1" d="M164.55,63.59,158.91,51.1a.29.29,0,0,0-.27-.18h-4.19c-.15,0-.22.08-.22.23v12.3a.57.57,0,0,1-.16.39.54.54,0,0,1-.38.15h-5.28a.52.52,0,0,1-.38-.15.53.53,0,0,1-.16-.39V33a.55.55,0,0,1,.54-.55H161.3a10.57,10.57,0,0,1,5.07,1.18A8.16,8.16,0,0,1,169.75,37a10.13,10.13,0,0,1,1.2,5,8.94,8.94,0,0,1-1.53,5.26,8.21,8.21,0,0,1-4.29,3.08.22.22,0,0,0-.13.32l6.13,12.75a.69.69,0,0,1,.09.27c0,.25-.17.36-.5.36h-5.54A.63.63,0,0,1,164.55,63.59ZM154.23,38.12v7.71c0,.15.07.23.22.23h5.91a4.3,4.3,0,0,0,3.08-1.13,3.84,3.84,0,0,0,1.2-2.93,3.9,3.9,0,0,0-1.2-3,4.23,4.23,0,0,0-3.08-1.15h-5.91A.19.19,0,0,0,154.23,38.12Z"/><path class="cls-1" d="M195.69,63.54l-1.35-4.41a.27.27,0,0,0-.23-.18H183a.27.27,0,0,0-.23.18l-1.31,4.41a.55.55,0,0,1-.58.45h-5.73a.43.43,0,0,1-.45-.63l9.74-30.46a.57.57,0,0,1,.59-.46h7.07a.58.58,0,0,1,.59.46l9.73,30.46a.52.52,0,0,1,.05.23c0,.27-.17.4-.5.4h-5.72A.56.56,0,0,1,195.69,63.54ZM184.6,54h7.94q.27,0,.18-.27l-4.06-13.38c0-.12-.07-.18-.13-.16a.21.21,0,0,0-.14.16l-4,13.38Q184.38,54,184.6,54Z"/><path class="cls-1" d="M228.17,37.74a.53.53,0,0,1-.39.16H213a.19.19,0,0,0-.22.22v7c0,.15.07.23.22.23h9.69a.56.56,0,0,1,.39.15.57.57,0,0,1,.16.39v4.37a.55.55,0,0,1-.55.54H213a.19.19,0,0,0-.22.22V63.45a.53.53,0,0,1-.16.39.52.52,0,0,1-.38.15H207a.54.54,0,0,1-.38-.15.57.57,0,0,1-.16-.39V33a.57.57,0,0,1,.16-.39.55.55,0,0,1,.38-.16h20.78a.57.57,0,0,1,.39.16.56.56,0,0,1,.15.39v4.37A.52.52,0,0,1,228.17,37.74Z"/><path class="cls-1" d="M253.86,32.6A.56.56,0,0,1,254,33V37.4a.51.51,0,0,1-.54.54h-8.06a.21.21,0,0,0-.23.23V63.45a.53.53,0,0,1-.16.39.52.52,0,0,1-.38.15h-5.27a.51.51,0,0,1-.54-.54V38.17a.21.21,0,0,0-.23-.23h-7.84a.51.51,0,0,1-.54-.54V33a.56.56,0,0,1,.15-.39.57.57,0,0,1,.39-.16h22.71A.57.57,0,0,1,253.86,32.6Z"/><path class="cls-1" d="M125.38,105.68a9.91,9.91,0,0,1-4.1-3.85,11.21,11.21,0,0,1-1.44-5.73V85.69A11.17,11.17,0,0,1,121.28,80a9.67,9.67,0,0,1,4.1-3.83,13.34,13.34,0,0,1,6.18-1.36,13.72,13.72,0,0,1,6.1,1.29,9.58,9.58,0,0,1,4.1,3.65,10.16,10.16,0,0,1,1.47,5.48c0,.27-.18.43-.54.49l-5.28.32h-.09c-.3,0-.45-.17-.45-.5a5.12,5.12,0,0,0-1.46-3.83,5.93,5.93,0,0,0-7.75,0,5.12,5.12,0,0,0-1.47,3.83V96.37a5.06,5.06,0,0,0,1.47,3.79,5.93,5.93,0,0,0,7.75,0,5.06,5.06,0,0,0,1.46-3.79c0-.33.18-.49.54-.49l5.28.22a.56.56,0,0,1,.38.14.38.38,0,0,1,.16.31,10.26,10.26,0,0,1-1.47,5.5,9.69,9.69,0,0,1-4.1,3.7,13.59,13.59,0,0,1-6.1,1.31A13.22,13.22,0,0,1,125.38,105.68Z"/><path class="cls-1" d="M148,106.54a.53.53,0,0,1-.16-.39V75.69a.55.55,0,0,1,.54-.55h5.28a.55.55,0,0,1,.38.16.57.57,0,0,1,.16.39V101a.19.19,0,0,0,.22.22h14.74a.55.55,0,0,1,.54.54v4.37a.53.53,0,0,1-.16.39.52.52,0,0,1-.38.15H148.41A.52.52,0,0,1,148,106.54Z"/><path class="cls-1" d="M193.89,106.24l-1.35-4.41a.27.27,0,0,0-.23-.18H181.22c-.09,0-.16.06-.22.18l-1.31,4.41a.56.56,0,0,1-.58.45h-5.73a.51.51,0,0,1-.4-.15.48.48,0,0,1,0-.48l9.74-30.46a.56.56,0,0,1,.58-.46h7.08a.56.56,0,0,1,.58.46l9.74,30.46a.53.53,0,0,1,0,.23c0,.27-.16.4-.49.4h-5.73A.56.56,0,0,1,193.89,106.24ZM182.8,96.73h7.93q.27,0,.18-.27l-4-13.38c0-.12-.08-.18-.14-.16s-.1.07-.13.16l-4,13.38Q182.58,96.73,182.8,96.73Z"/><path class="cls-1" d="M221.34,106.29,215.7,93.8a.29.29,0,0,0-.27-.18h-4.19c-.15,0-.22.08-.22.23v12.3a.57.57,0,0,1-.16.39.56.56,0,0,1-.39.15H205.2a.52.52,0,0,1-.38-.15.53.53,0,0,1-.16-.39V75.69a.55.55,0,0,1,.54-.55h12.89a10.6,10.6,0,0,1,5.07,1.18,8.16,8.16,0,0,1,3.38,3.33,10.13,10.13,0,0,1,1.2,5,8.88,8.88,0,0,1-1.54,5.26A8.14,8.14,0,0,1,221.92,93a.22.22,0,0,0-.13.32l6.13,12.75a.69.69,0,0,1,.09.27c0,.25-.17.36-.5.36H222A.63.63,0,0,1,221.34,106.29ZM211,80.82v7.71c0,.15.07.23.22.23h5.91a4.3,4.3,0,0,0,3.08-1.13,3.84,3.84,0,0,0,1.2-2.93,3.9,3.9,0,0,0-1.2-3,4.23,4.23,0,0,0-3.08-1.15h-5.91A.19.19,0,0,0,211,80.82Z"/><path class="cls-1" d="M232.49,106.54a.57.57,0,0,1-.16-.39V75.69a.57.57,0,0,1,.16-.39.55.55,0,0,1,.39-.16h5.27a.55.55,0,0,1,.54.55v30.46a.53.53,0,0,1-.16.39.52.52,0,0,1-.38.15h-5.27A.54.54,0,0,1,232.49,106.54Z"/><path class="cls-1" d="M266.34,75.3a.53.53,0,0,1,.16.39V80.1a.53.53,0,0,1-.16.39.52.52,0,0,1-.38.15h-8.07a.21.21,0,0,0-.23.23v25.28a.51.51,0,0,1-.54.54h-5.27a.52.52,0,0,1-.38-.15.53.53,0,0,1-.16-.39V80.87a.21.21,0,0,0-.23-.23h-7.84a.52.52,0,0,1-.38-.15.53.53,0,0,1-.16-.39V75.69a.55.55,0,0,1,.54-.55H266A.53.53,0,0,1,266.34,75.3Z"/><path class="cls-1" d="M278.69,106.49a.49.49,0,0,1-.16-.38V94.71a.64.64,0,0,0,0-.27L269.2,75.78a.68.68,0,0,1-.09-.28c0-.23.17-.36.5-.36h5.68a.64.64,0,0,1,.63.41l5.63,12q.13.27.27,0l5.64-12a.64.64,0,0,1,.63-.41h5.77a.39.39,0,0,1,.4.64l-9.37,18.66a.62.62,0,0,0-.05.27v11.4a.55.55,0,0,1-.54.54h-5.23A.49.49,0,0,1,278.69,106.49Z"/></g></g></svg>